<svg width="169" height="102" viewBox="0 0 169 102" fill="none" xmlns="http://www.w3.org/2000/svg">
<path d="M51.816 34.036H51.2585L51.319 34.5902L51.928 40.1735C49.7764 38.0439 47.3205 36.2521 44.5624 34.7983C41.3677 33.0919 37.7657 32.244 33.768 32.244C29.1387 32.244 24.8044 33.1097 20.7704 34.8447L20.7686 34.8455C16.7857 36.5772 13.2561 38.9808 10.1824 42.0544C7.107 45.1299 4.7239 48.683 3.0349 52.7106C1.34368 56.7435 0.5 61.0764 0.5 65.704C0.5 70.5453 1.38646 75.0912 3.16271 79.337L3.16516 79.3427C4.98193 83.5385 7.49212 87.2392 10.6944 90.4416C13.8968 93.6439 17.5975 96.1541 21.7933 97.9708C25.9984 99.7916 30.5251 100.7 35.368 100.7C38.9418 100.7 42.083 99.9148 44.7741 98.3266C47.063 96.9758 49 95.2686 50.582 93.2069L51.2559 98.598L51.3106 99.036H51.752H69.48H69.98V98.536V52.7H77.492V98.536V99.036H77.992H95.656H96.156V98.536V52.7H106.284V98.536V99.036H106.784H124.448H124.948V98.536V52.7H129.4V98.536V99.036H129.9H147.564H148.064V98.536V52.7H164.524H165.024V52.2V34.536V34.036H164.524H148.064V22.12C148.064 21.2693 148.354 20.5932 148.93 20.0528L148.931 20.0521C149.565 19.4553 150.296 19.164 151.148 19.164C151.695 19.164 152.228 19.3086 152.756 19.6101C153.252 19.8936 153.631 20.3195 153.89 20.9124L154.181 21.5781L154.699 21.0682L167.371 8.58824L167.708 8.25668L167.395 7.90183C165.175 5.37644 162.64 3.51563 159.791 2.33154C156.96 1.11234 154.077 0.5 151.148 0.5C147.179 0.5 143.527 1.48267 140.205 3.44975L140.203 3.45125C136.933 5.41298 134.315 8.03101 132.353 11.3002C130.383 14.5399 129.4 18.1506 129.4 22.12V34.036H124.948H124.448H123.5H123H107.676H107.176H106.784H106.284H96.156V14.44V13.94H95.656H77.992H77.492V14.44V34.036H69.98H69.48H69.16H68.66H51.816ZM21.6604 58.3961L21.6621 58.393C23.0306 55.9049 24.8708 53.9424 27.185 52.496C29.4912 51.0546 32.0653 50.332 34.92 50.332C37.7306 50.332 40.2607 51.0538 42.5236 52.4938C44.7964 53.9402 46.5944 55.8814 47.9205 58.3264C49.2427 60.7642 49.908 63.4971 49.908 66.536C49.908 69.5303 49.2435 72.2644 47.9196 74.7473C46.5936 77.1915 44.7958 79.1322 42.5236 80.5782C40.2607 82.0182 37.7306 82.74 34.92 82.74C32.1094 82.74 29.5564 82.0181 27.249 80.576C24.9328 79.1284 23.0705 77.1853 21.6597 74.7387C20.296 72.2575 19.612 69.5265 19.612 66.536C19.612 63.5437 20.2968 60.834 21.6604 58.3961Z" stroke="black"/>
<circle cx="114.5" cy="21.5" r="8" stroke="black"/>
</svg>
